<?xml version="1.0" encoding="UTF-8"?>
<svg width="32" height="32" version="1.1" viewBox="0 0 32 32" xmlns="http://www.w3.org/2000/svg">
 <path d="m16 0a16 16 0 0 0-16 16 16 16 0 0 0 16 16 16 16 0 0 0 16-16 16 16 0 0 0-16-16zm-3.0176 3.8164h3.7188c1.9062 0 3.5313 0.67188 4.875 2.0156 1.3437 1.3437 2.0156 2.9635 2.0156 4.8594 0 2.1458-0.67188 3.7813-2.0156 4.9062 1.5833 1.2083 2.375 3.0052 2.375 5.3906 0 1.9896-0.70834 3.6927-2.125 5.1094s-3.125 2.125-5.125 2.125h-3.7188c-1.2083 0-2.2448-0.43229-3.1094-1.2969-0.86458-0.86458-1.2969-1.901-1.2969-3.1094v-15.594c0-1.2187 0.43229-2.2604 1.2969-3.125 0.86458-0.85417 1.901-1.2812 3.1094-1.2812zm0 3.8125c-0.16667 0-0.30729 0.057292-0.42188 0.17188-0.10417 0.11458-0.15625 0.25521-0.15625 0.42188v5.5312l4.2969-0.015625c0.85417 0 1.5781-0.29167 2.1719-0.875 0.59375-0.59375 0.89062-1.3177 0.89062-2.1719 0-0.84375-0.29688-1.5625-0.89062-2.1562-0.60417-0.60417-1.3281-0.90625-2.1719-0.90625h-3.7188zm-0.57812 9.9375v6.25c0 0.16667 0.052083 0.30729 0.15625 0.42188 0.11458 0.10417 0.25521 0.15625 0.42188 0.15625h3.7188c0.94792 0 1.7552-0.32812 2.4219-0.98438 0.65625-0.66667 0.98438-1.474 0.98438-2.4219 0-0.94792-0.32813-1.7552-0.98438-2.4219-0.66667-0.66667-1.474-1-2.4219-1h-4.2969z" fill="#369" stroke-linecap="round" stroke-linejoin="bevel" stroke-miterlimit="8" style="paint-order:stroke fill markers"/>
</svg>
